<?xml version="1.0" encoding="UTF-8" standalone="no"?>
<!-- Created with Inkscape (http://www.inkscape.org/) -->

<svg
   width="500"
   height="500"
   viewBox="0 0 500 500"
   version="1.1"
   id="svg1"
   inkscape:version="1.4.4 (dcaf3e7d9e, 2026-05-05)"
   sodipodi:docname="favicon.svg"
   inkscape:export-filename="favicon.png"
   inkscape:export-xdpi="600"
   inkscape:export-ydpi="600"
   xmlns:inkscape="http://www.inkscape.org/namespaces/inkscape"
   xmlns:sodipodi="http://sodipodi.sourceforge.net/DTD/sodipodi-0.dtd"
   xmlns="http://www.w3.org/2000/svg"
   xmlns:svg="http://www.w3.org/2000/svg">
  <sodipodi:namedview
     id="namedview1"
     pagecolor="#ffffff"
     bordercolor="#000000"
     borderopacity="0.25"
     inkscape:showpageshadow="2"
     inkscape:pageopacity="0.0"
     inkscape:pagecheckerboard="0"
     inkscape:deskcolor="#d1d1d1"
     inkscape:document-units="px"
     inkscape:zoom="0.52288069"
     inkscape:cx="559.40104"
     inkscape:cy="298.34722"
     inkscape:window-width="1896"
     inkscape:window-height="1026"
     inkscape:window-x="0"
     inkscape:window-y="0"
     inkscape:window-maximized="1"
     inkscape:current-layer="layer1" />
  <defs
     id="defs1" />
  <g
     inkscape:label="Layer 1"
     inkscape:groupmode="layer"
     id="layer1">
    <rect
       style="fill:#ffffff;fill-opacity:1;stroke-width:1.88976;paint-order:stroke markers fill"
       id="rect1"
       width="500"
       height="500"
       x="0"
       y="0" />
    <path
       d="m 238.45162,450 q -9.80646,0 -17.54839,-3.09677 -7.74194,-2.58064 -13.41936,-9.29032 -5.16129,-7.22581 -9.80645,-20.12904 L 156.90323,302.3871 q -3.09678,-9.29032 -7.22581,-21.16129 -4.12903,-12.3871 -8.77419,-25.29033 -4.12904,-12.90322 -7.74194,-24.25806 Q 130.06452,220.32259 128,212.06452 h -2.06452 q -3.6129,18.58065 -11.35484,42.83871 -7.2258,24.25806 -13.93548,44.90322 L 53.16129,444.83871 H 4.6451612 L 105.80645,167.16129 92.387097,132.58064 Q 84.129032,109.87097 68.645161,98.516128 53.677419,87.16129 28.903225,87.16129 q -9.290322,0 -16.516128,1.032258 Q 5.6774193,89.225806 0,90.258064 V 54.129032 Q 4.6451612,52.580645 9.8064515,52.064516 15.483871,51.032258 21.677419,50.516129 27.870967,50 34.580645,50 q 26.83871,0 45.935484,8.774193 19.612901,8.774194 33.548381,27.354839 14.45162,18.580648 25.29033,48.000008 l 98.06451,260.64515 q 3.09677,7.22581 5.16129,11.35485 2.06452,3.6129 4.64516,5.16129 3.09678,1.54838 6.70969,1.54838 4.12902,0 7.74193,-1.03226 3.6129,-1.03226 6.19355,-1.54839 v 33.54839 q -3.6129,1.54839 -8.25807,3.09678 -4.64516,1.54838 -9.80645,2.06451 Q 244.64516,450 238.45162,450 Z"
       id="text1"
       style="font-size:567.742px;line-height:0.1;font-family:'Noto Sans';-inkscape-font-specification:'Noto Sans';fill:#0288a9;stroke-width:91.44;paint-order:stroke markers fill"
       aria-label="λ" />
    <path
       id="rect3"
       style="stroke-width:2.13681;paint-order:stroke markers fill;fill:#0288a9;fill-opacity:1"
       d="m 250.52498,1.473684 h 250 V 501.47368 Z"
       sodipodi:nodetypes="cccc" />
  </g>
</svg>
